<svg width="23.999999999999996" height="23.999999999999996" xmlns="http://www.w3.org/2000/svg">

 <g>
  <title>background</title>
  <rect fill="none" id="canvas_background" height="402" width="582" y="-1" x="-1"/>
 </g>
 <g>
  <title>Layer 1</title>
  <path fill="#1db954" id="svg_2" d="m20.726758,6.520888c0,-0.2 -0.1,-0.3 -0.2,-0.4l-8.1,-4.7c-0.1,-0.1 -0.3,-0.1 -0.5,0l-8.2,4.7c-0.1,0.1 -0.2,0.2 -0.2,0.4c0,0.2 0.1,0.3 0.2,0.4l8.1,4.7c0.1,0 0.2,0.1 0.2,0.1s0.2,0 0.2,-0.1l8.1,-4.7c0.3,-0.1 0.4,-0.3 0.4,-0.4z"/>
  <path fill="#1db954" id="svg_3" d="m11.341879,12.499615l-8.1,-4.7c-0.2,-0.1 -0.4,-0.1 -0.5,0c-0.1,0.1 -0.2,0.3 -0.2,0.4l0,9.4c0,0.2 0.1,0.3 0.2,0.4l8.1,4.7c0.1,0 0.2,0.1 0.2,0.1s0.2,0 0.2,-0.1c0.1,-0.1 0.2,-0.2 0.2,-0.4l0,-9.4c0.2,-0.2 0.1,-0.3 -0.1,-0.4z"/>
  <path fill="#047c2c" id="svg_4" d="m21.419087,7.797111c-0.1,-0.1 -0.3,-0.1 -0.5,0l-8.1,4.7c-0.1,0.1 -0.2,0.2 -0.2,0.4l0,9.4c0,0.2 0.1,0.3 0.2,0.4c0.1,0 0.2,0.1 0.2,0.1s0.2,0 0.2,-0.1l8.1,-4.7c0.1,-0.1 0.2,-0.2 0.2,-0.4l0,-9.4c0.1,-0.1 0,-0.3 -0.1,-0.4z"/>
 </g>
</svg>